<?xml version="1.0" encoding="iso-8859-1"?>
<!-- Uploaded to: SVG Repo, www.svgrepo.com, Generator: SVG Repo Mixer Tools -->
<svg fill="#000000" version="1.1" id="Layer_1" xmlns="http://www.w3.org/2000/svg" xmlns:xlink="http://www.w3.org/1999/xlink" 
	 viewBox="0 0 491.52 491.52" xml:space="preserve">
<g>
	<g>
		<path d="M491.52,419.84V0H0v419.84h153.6v51.2h-40.96v20.48h266.24v-20.48h-40.96v-51.2H491.52z M20.48,20.48h450.56v327.68H20.48
			V20.48z M317.44,471.04H174.08v-51.2h143.36V471.04z M20.48,399.36v-30.72h450.56v30.72H20.48z"/>
	</g>
</g>
<g>
	<g>
		<path d="M245.76,40.96c-25.97,0-47.1,21.13-47.1,47.1c0,25.98,21.13,47.11,47.1,47.11c25.97,0,47.1-21.13,47.1-47.11
			C292.86,62.09,271.73,40.96,245.76,40.96z M245.76,114.69c-14.68,0-26.62-11.95-26.62-26.63s11.94-26.62,26.62-26.62
			c14.68,0,26.62,11.94,26.62,26.62S260.44,114.69,245.76,114.69z"/>
	</g>
</g>
<g>
	<g>
		<path d="M301.41,141.17l-11.71-3.46l-43.94,34.18l-43.94-34.18l-11.75,3.47c-27.94,8.39-46.71,33.62-46.71,62.78v41.8h204.8v-41.8
			C348.16,174.8,329.39,149.57,301.41,141.17z M327.68,225.28H163.84v-21.32c0-20.05,12.91-37.4,32.07-43.15l1.63-0.48l48.22,37.5
			l48.22-37.5l1.59,0.47c19.2,5.76,32.11,23.11,32.11,43.16V225.28z"/>
	</g>
</g>
<g>
	<g>
		<rect x="153.6" y="307.2" width="184.32" height="20.48"/>
	</g>
</g>
<g>
	<g>
		<rect x="102.4" y="266.24" width="286.72" height="20.48"/>
	</g>
</g>
</svg>